<svg xmlns="http://www.w3.org/2000/svg" viewBox="0 0 512 512">
  <defs>
    <radialGradient id="bg" cx="45%" cy="38%" r="70%">
      <stop offset="0%" stop-color="#1a1a2e"/>
      <stop offset="100%" stop-color="#080810"/>
    </radialGradient>
    <radialGradient id="ball" cx="38%" cy="35%" r="65%">
      <stop offset="0%" stop-color="#ffffff"/>
      <stop offset="100%" stop-color="#d8d8e8"/>
    </radialGradient>
  </defs>

  <!-- Background -->
  <rect width="512" height="512" rx="112" fill="url(#bg)"/>

  <!-- Ball -->
  <circle cx="256" cy="218" r="138" fill="url(#ball)"/>

  <!-- Pentagon patches -->
  <path d="M256 108 L290 148 L275 193 L237 193 L222 148Z" fill="#111827" opacity="0.88"/>
  <path d="M394 197 L357 173 L352 214 L378 244 L412 232Z" fill="#111827" opacity="0.88"/>
  <path d="M349 315 L330 272 L293 283 L290 327 L326 346Z" fill="#111827" opacity="0.88"/>
  <path d="M163 315 L182 272 L219 283 L222 327 L186 346Z" fill="#111827" opacity="0.88"/>
  <path d="M118 197 L155 173 L160 214 L134 244 L100 232Z" fill="#111827" opacity="0.88"/>

  <!-- Seams connecting pentagons -->
  <line x1="256" y1="108" x2="290" y2="148" stroke="#111827" stroke-width="3" opacity="0.4"/>
  <line x1="290" y1="148" x2="352" y2="214" stroke="#111827" stroke-width="3" opacity="0.4"/>
  <line x1="378" y1="244" x2="330" y2="272" stroke="#111827" stroke-width="3" opacity="0.4"/>
  <line x1="326" y1="346" x2="290" y2="327" stroke="#111827" stroke-width="3" opacity="0.4"/>
  <line x1="222" y1="327" x2="186" y2="346" stroke="#111827" stroke-width="3" opacity="0.4"/>
  <line x1="134" y1="244" x2="182" y2="272" stroke="#111827" stroke-width="3" opacity="0.4"/>
  <line x1="160" y1="214" x2="222" y2="193" stroke="#111827" stroke-width="3" opacity="0.4"/>
  <line x1="275" y1="193" x2="357" y2="173" stroke="#111827" stroke-width="3" opacity="0.4"/>

  <!-- App name -->
  <text x="256" y="422" font-family="system-ui,-apple-system,sans-serif" font-size="62" font-weight="900" text-anchor="middle" fill="#4F7FFF" letter-spacing="-1">DOMINGOL</text>
  <text x="256" y="468" font-family="system-ui,-apple-system,sans-serif" font-size="28" font-weight="500" text-anchor="middle" fill="#4F7FFF" opacity="0.55" letter-spacing="6">⚽ FÚTBOL</text>
</svg>
